<svg width="160" height="68" viewBox="0 0 160 68" fill="none" xmlns="http://www.w3.org/2000/svg">
<g clip-path="url(#clip0_2241_27505)">
<path d="M47.626 20H32.372C28.8536 20 26 22.8536 26 26.372V41.626C26 45.1464 28.8536 47.998 32.372 47.998H46.0961L34.9265 45.005H34.9204C30.4602 43.8086 27.8128 39.2231 29.0092 34.7629C30.2035 30.3027 34.789 27.6553 39.2492 28.8517L39.8656 26.5741C40.6154 23.7994 43.4669 22.1523 46.2457 22.8859C47.5674 23.2355 48.4728 24.446 48.4485 25.8142C48.4283 26.9601 48.5273 28.308 48.9841 29.2821C49.9197 31.2829 51.5365 32.0973 52.8319 32.4914C53.0744 32.5661 53.6544 32.7177 54.002 32.8066V26.372C54.002 22.8536 51.1485 20 47.63 20L47.626 20Z" fill="#00F3E9"/>
<path d="M48.9821 29.2822C48.5274 28.3081 48.4263 26.9622 48.4466 25.8143C48.4708 24.4461 47.5675 23.2356 46.2437 22.8859C43.465 22.1503 40.6134 23.7994 39.8637 26.5741L39.2473 28.8517C34.7871 27.6574 30.2016 30.3028 29.0072 34.7629C27.8129 39.2231 30.4583 43.8086 34.9184 45.003H34.9245L46.0942 47.998H47.624C48.6143 47.998 49.552 47.7717 50.3867 47.3695C50.5726 47.2806 50.7524 47.1816 50.9283 47.0745C51.2779 46.8623 51.6073 46.6157 51.9084 46.3409C51.9832 46.2721 52.058 46.2014 52.1307 46.1307C52.4197 45.8417 52.6804 45.5264 52.9088 45.1869C53.2523 44.6776 53.5252 44.1178 53.7111 43.5196C53.7737 43.3196 53.8263 43.1155 53.8687 42.9093C53.9536 42.495 53.9981 42.0646 53.9981 41.624V32.8047C53.6505 32.7137 53.0725 32.5622 52.8279 32.4894C51.5325 32.0953 49.9158 31.2829 48.9801 29.2802L48.9821 29.2822Z" fill="black"/>
<path d="M46.8196 30.4524C46.0395 29.5834 45.6212 28.4153 45.7162 27.2088C45.7364 26.9481 45.7808 26.6854 45.8495 26.4247L42.8343 25.6163L39.5907 37.7015C39.1764 39.0414 37.7719 39.8295 36.4078 39.4638C35.9834 39.3506 35.6115 39.1364 35.3104 38.8575C34.5869 38.1885 34.2635 37.1336 34.5909 36.1191C34.9446 35.0238 36.0076 34.2922 37.1595 34.3104C37.6668 34.3185 38.1094 34.4741 38.4833 34.7125L39.1158 32.3481L39.3078 31.6347C39.0713 31.5356 38.8288 31.4487 38.5742 31.38C35.5145 30.5595 32.3558 32.3824 31.5373 35.4441C31.0341 37.3216 31.5272 39.2354 32.6892 40.6238C33.4552 41.5372 34.5081 42.2243 35.7631 42.5234C38.8066 43.2469 41.8602 41.3271 42.6706 38.3058L44.2813 32.2915C45.2372 33.4575 46.5508 34.3468 48.115 34.7651L48.7435 32.4208L48.9234 31.7499C48.0807 31.5235 47.3632 31.0627 46.8216 30.4585L46.8196 30.4524Z" fill="white"/>
<path d="M120.59 28.7346C119.759 27.5362 118.047 26.5095 117.104 26.0144L116.667 26.3054L119.114 29.8683L120.59 28.7366V28.7346Z" fill="black"/>
<path d="M121.42 39.304L121.721 39.6597C124.601 38.2915 125.347 36.8769 125.81 34.5063C126.327 34.1385 126.95 34.0456 126.861 34.3063C126.638 35.7391 126.523 37.1618 127.325 38.3057C127.946 39.1888 129.255 40.0801 132.089 39.498L131.509 35.8684L131.333 35.9392L130.783 38.0894C129.648 38.1177 128.768 37.9278 128.31 37.2366C127.831 36.5131 128.043 35.0904 128.219 34.2497C128.502 32.9725 126.715 33.5909 125.878 34.1385C125.935 33.8152 125.99 33.4736 126.046 33.1119H131.612L131.719 32.0307C131.571 32.1075 131.44 32.1722 131.315 32.2287H127.414V29.3105H130.648V29.2964L130.755 28.2051C130.628 28.2718 130.512 28.3284 130.403 28.3809H127.414V25.4182H125.751V28.3809H123.957C124.282 27.712 124.571 27.039 124.787 26.4246L123.049 25.9113C122.724 27.8999 122.182 29.8198 121.511 31.671L121.859 31.8407C122.358 31.2264 122.94 30.3068 123.48 29.3105H125.753V32.2287H121.232V33.1119H124.387C124.145 35.8907 123.775 37.4832 121.42 39.306V39.304Z" fill="black"/>
<path d="M132.986 40.2195C131.115 40.5287 129.332 40.7086 127.071 40.7086C125.606 40.7086 124.438 40.6399 123.567 40.5004C122.142 40.2741 121.133 39.9507 120.085 39.0292V32.35L120.18 31.3961C119.992 31.4931 119.832 31.5699 119.676 31.6407H115.816V32.5238H118.387V39.1141L115.738 41.0299L116.839 42.394C117.706 41.6362 118.559 40.4176 119.072 39.5142H119.076C119.228 39.2252 119.43 39.2191 119.682 39.496C120.491 40.5449 121.382 41.2704 122.354 41.6746C123.365 42.0909 125.193 42.3475 126.523 42.3475C128.029 42.3475 130.69 42.3475 132.271 42.0889L133.067 40.3226L132.988 40.2215L132.986 40.2195Z" fill="black"/>
<path d="M110.974 32.8896C109.679 32.8896 108.161 33.2837 106.518 33.9971V33.2554H104.879V42.2183H106.518V38.817H110.974V39.4617C110.974 40.8319 110.327 41.5352 108.769 41.7474V41.9414L110.517 42.8367C111.55 42.4426 112.67 41.4645 112.67 39.0494V34.6943C112.67 33.6131 112.476 32.8896 110.974 32.8896ZM106.518 37.8874V36.4465H110.974V37.8874H106.518ZM110.974 35.5391H106.518V34.4114C108.216 33.6313 110.974 33.3565 110.974 34.1527V35.5391Z" fill="black"/>
<path d="M109.44 31.3275V30.03H112.26V30.0159L112.367 28.9246C112.219 29.0014 112.088 29.0661 111.963 29.1247H109.438V27.8818H112.953V27.8676L113.06 26.7763C112.933 26.843 112.817 26.8996 112.708 26.9522H109.438V25.4163H107.775V26.9522H104.481V27.8838H107.775V29.1267H104.986V30.0341H107.775V31.3315H103.786V32.2147H113.771L113.878 31.1335C113.731 31.2103 113.599 31.2749 113.474 31.3315H109.436L109.44 31.3275Z" fill="black"/>
<path d="M101.304 33.8415V32.8331H103.531L103.638 31.7519C103.491 31.8287 103.359 31.8934 103.234 31.9499H101.302V30.992L101.591 31.1618C102.464 30.2362 103.515 28.6821 104.158 27.2169L102.662 26.649L101.302 30.8546V25.776H99.6387V29.6966C98.9961 28.6134 97.9998 27.5079 97.3531 26.932L96.8882 27.0977L98.311 30.9152L99.6387 30.3393V31.9499H96.7549V32.8331H98.3635C97.9028 35.6058 97.4743 36.9174 96.0677 39.9387L96.5164 40.2337C98.1432 37.9016 99.0264 35.9534 99.6408 32.9887V42.5154H101.304V34.2195C101.53 33.9244 101.68 33.9163 101.866 34.3589C102.09 34.8924 102.373 36.1919 102.535 37.7379L104.071 37.0589C103.646 35.7331 103.004 34.7065 102.428 33.9507C102.254 33.7203 101.753 33.3848 101.304 33.8436V33.8415Z" fill="black"/>
<path d="M76.3315 36.5596H73.674V25.2545H71.8491V36.5596H64.8445V37.5155H71.8491V42.5133H73.674V37.5155H76.5922V37.4832L76.6993 36.3777C76.5659 36.4464 76.4467 36.505 76.3335 36.5596H76.3315Z" fill="black"/>
<path d="M66.053 32.8674L65.8125 32.5642C65.283 32.8997 64.608 33.31 63.8744 33.7364V30.3857H66.734V30.3715L66.8411 29.2802C66.7138 29.3469 66.5986 29.4035 66.4895 29.456H63.8744V25.4142H62.1788V29.456H59.3334V30.3877H62.1788V34.6923C61.0956 35.2804 60.0205 35.8179 59.1879 36.1514L60.0629 37.7378C60.6247 37.3902 61.3846 36.8567 62.1809 36.2565V39.4637C62.1809 40.8339 61.5342 41.5372 59.976 41.7494V41.9434L61.7241 42.8387C62.7568 42.4446 63.8764 41.4664 63.8764 39.0514V34.9166C64.8222 34.1325 65.6488 33.3767 66.055 32.8674H66.053Z" fill="black"/>
<path d="M71.1518 29.4763C70.3212 28.2779 68.6094 27.2512 67.6656 26.7561L67.2291 27.0471L69.6765 30.61L71.1518 29.4783V29.4763Z" fill="black"/>
<path d="M69.2561 35.1491L70.7779 33.981C69.923 32.7441 68.1567 31.6872 67.1827 31.1759L66.734 31.475L69.2561 35.1491Z" fill="black"/>
<path d="M93.9156 28.2718V28.2394L94.0227 27.134C93.8893 27.2027 93.7701 27.2613 93.6569 27.3159H87.9922L88.4753 26.5802C87.2971 25.7214 85.3408 25.3192 84.2859 25.1636L83.9706 25.5819L86.3391 27.3179H79.1567V28.2738H93.9176L93.9156 28.2718Z" fill="black"/>
<path d="M94.4066 31.9498H88.4913C89.6048 31.3314 90.8154 30.4442 91.7187 29.4338L90.3182 28.3041L87.6688 31.9478H84.3484L85.2659 31.2445C84.4353 30.0461 82.7236 29.0195 81.7798 28.5244L81.3433 28.8154L83.4956 31.9498H78.0956V32.8815H94.7178V32.8492L94.8249 31.7437C94.6713 31.8225 94.5359 31.8892 94.4066 31.9498Z" fill="black"/>
<path d="M90.2981 33.8617C87.8184 33.7808 85.5105 34.0577 82.7661 35.0945V34.1446H80.9796V42.5133H82.7661V41.7797H90.4073V42.5133H92.2544V35.7108H92.2503C92.212 34.6397 91.8421 33.9122 90.2981 33.8617ZM82.7661 40.7652V38.3785H90.4073V40.7652H82.7661ZM90.4073 37.3922H82.7661V35.4623C85.6985 34.5468 88.4267 34.4882 89.6858 34.757C90.1223 34.8499 90.4073 35.1025 90.4073 35.7048V37.3922Z" fill="black"/>
</g>
<defs>
<clipPath id="clip0_2241_27505">
<rect width="107.065" height="28" fill="white" transform="translate(26 20)"/>
</clipPath>
</defs>
</svg>
